# xmcd
#
# Track frame offsets: 
#        150
#        19164
#        31926
#        48007
#        64724
#        75577
#        96426
#        108911
#        122127
#        136212
#        150252
#        164838
#        179149
#        193221
#
# Disc length: 2837 seconds
#
# Revision: 0
# Processed by: cddbd v1.5.2PL0 Copyright (c) Steve Scherf et al.
# Submitted via: ExactAudioCopy v0.95b4
#
DISCID=b90b130e
DTITLE=Roger Ceresi's AllStarz - On The Right Track
DYEAR=2011
DGENRE=Swing
TTITLE0=Back To Memphis
TTITLE1=Get On The Right Track
TTITLE2=Questions
TTITLE3=Further On Up The Road
TTITLE4=Take It Like A Man
TTITLE5=It's A Long Time
TTITLE6=Midnight Blues
TTITLE7=Ooh Wee Sugar
TTITLE8=Cracked Up Over You
TTITLE9=Be Careful (If You Can't Be Good)
TTITLE10=Snatchin' It Back
TTITLE11=Sweetest Little Girl
TTITLE12=Just Because
TTITLE13=You Never Can Tell (C'est La Vie)
EXTD=
EXTT0=
EXTT1=
EXTT2=
EXTT3=
EXTT4=
EXTT5=
EXTT6=
EXTT7=
EXTT8=
EXTT9=
EXTT10=
EXTT11=
EXTT12=
EXTT13=
PLAYORDER=
